<svg id="图层_1" data-name="图层 1" xmlns="http://www.w3.org/2000/svg" viewBox="0 0 19.92 17.87"><defs><style>.cls-1{fill:#fff;}</style></defs><title>取消返航</title><polygon class="cls-1" points="18.5 17.87 2.83 2.17 4.25 0.73 19.92 16.43 18.5 17.87"/><path class="cls-1" d="M8.77,17c-4,0-7.25-1.26-7.25-2.81,0-1.1,1.63-2.05,4-2.52v-.89c-3.21.59-5.48,2-5.48,3.7,0,2.21,3.91,4,8.73,4,3.29,0,6.15-.83,7.64-2.05l-1.05-1.06C14.21,16.29,11.69,17,8.77,17Z" transform="translate(-0.04 -0.97)"/><polygon class="cls-1" points="12.9 5.84 12.9 5.85 12.9 5.85 12.9 5.84"/><path class="cls-1" d="M6.75,6.81H4.2l4.37,5.12,1.57-1.84L6.75,6.69Z" transform="translate(-0.04 -0.97)"/><path class="cls-1" d="M14,2.79a6.13,6.13,0,0,1,2.91.73A5.91,5.91,0,0,0,12.2,1,5,5,0,0,0,8.08,2.79l2.44,2.46A3.85,3.85,0,0,1,14,2.79Z" transform="translate(-0.04 -0.97)"/><polygon class="cls-1" points="5.54 11.27 4.82 14.55 6.64 14.55 6.8 13.09 10.11 13.09 10.28 14.55 12.1 14.55 11.37 11.27 9.91 11.27 10.03 12.36 6.88 12.36 7 11.27 5.54 11.27"/></svg>