<?xml version="1.0" standalone="no"?><!DOCTYPE svg PUBLIC "-//W3C//DTD SVG 1.1//EN" "http://www.w3.org/Graphics/SVG/1.1/DTD/svg11.dtd"><svg t="1684484422430" class="icon" viewBox="0 0 1024 1024" version="1.1" xmlns="http://www.w3.org/2000/svg" p-id="4869" xmlns:xlink="http://www.w3.org/1999/xlink" width="32" height="32"><path d="M583.3 512.3l326.2-326.2c19.4-19.4 19.4-51 0-70.4-19.4-19.4-51-19.4-70.4 0L512.8 441.9 186.6 115.7c-19.4-19.4-51-19.4-70.4 0-19.4 19.4-19.4 51 0 70.4l326.2 326.2-326.2 326.2c-19.4 19.4-19.4 51 0 70.4 19.4 19.4 51 19.4 70.4 0l326.2-326.2L839 908.9c19.4 19.4 51 19.4 70.4 0 19.4-19.4 19.4-51 0-70.4L583.3 512.3z" fill="#ffffff" p-id="4870"></path></svg>