<svg id="图层_1" data-name="图层 1" xmlns="http://www.w3.org/2000/svg" viewBox="0 0 19.88 14.84"><defs><style>.cls-1{fill:#fff;}</style></defs><title>应急降落</title><path class="cls-1" d="M19.85,13.51c.63-2-3.27-3.36-7.71-4.21a1.16,1.16,0,0,0-.05-.52L9.51,1.85a1.26,1.26,0,0,0-1.58-.74,1.29,1.29,0,0,0-.53.41l0,.05L6,8.41l-2.8-.27-.34-.93L1.53,4.48.15,3.69.4,8.42l2.21,2.06c2.11.51,5,1.61,8.58,2.35C17.84,14.23,19.51,14.61,19.85,13.51Z" transform="translate(-0.04 -1.04)"/><rect class="cls-1" y="13.8" width="19.81" height="1.05"/></svg>