<svg id="图层_1" data-name="图层 1" xmlns="http://www.w3.org/2000/svg" viewBox="0 0 19.89 15.16"><defs><style>.cls-1{fill:#fff;}</style></defs><title>立即悬停</title><path class="cls-1" d="M10.6,9.35a.8.8,0,1,0-1.11,1.14A.8.8,0,0,0,10.6,9.35Zm-.81.81a.34.34,0,0,1,.48-.48h0a.34.34,0,0,1-.48.48ZM3.43,14.11l-3.34-5H2.55A7.53,7.53,0,0,1,4.72,4.55a7.6,7.6,0,0,1,9.67-.87L13.6,5a6.06,6.06,0,0,0-7.8.64A5.94,5.94,0,0,0,4.09,9.09H6.77l-3.34,5Zm9.86-3.36,3.34-5,3.34,5H17.51A7.57,7.57,0,0,1,5.57,16.09l.91-1.22a6.06,6.06,0,0,0,7.78-.66A5.94,5.94,0,0,0,16,10.75Z" transform="translate(-0.09 -2.34)"/></svg>