<svg id="图层_1" data-name="图层 1" xmlns="http://www.w3.org/2000/svg" viewBox="0 0 15.76 15.76"><defs><style>.cls-1{fill:#fff;}</style></defs><title>更多</title><path class="cls-1" d="M10.6,8.94h3.63a1.43,1.43,0,0,1,1.62,1.62v3.63a1.43,1.43,0,0,1-1.62,1.62H10.6A1.43,1.43,0,0,1,9,14.19V10.56A1.43,1.43,0,0,1,10.6,8.94ZM1.71.05H5.35A1.43,1.43,0,0,1,7,1.67V5.3A1.43,1.43,0,0,1,5.35,6.92H1.71A1.43,1.43,0,0,1,.09,5.3V1.67A1.43,1.43,0,0,1,1.71.05Zm0,8.89H5.35A1.43,1.43,0,0,1,7,10.56v3.63a1.43,1.43,0,0,1-1.61,1.62H1.71A1.43,1.43,0,0,1,.09,14.19V10.56A1.43,1.43,0,0,1,1.71,8.94Zm9.55-2.4a1.33,1.33,0,0,0,1.88,0l2.1-2.13a1.3,1.3,0,0,0,0-1.87L13.14.44a1.32,1.32,0,0,0-1.86,0L9.16,2.54a1.32,1.32,0,0,0,0,1.87l2.1,2.13Z" transform="translate(-0.09 -0.05)"/></svg>