<svg id="图层_1" data-name="图层 1" xmlns="http://www.w3.org/2000/svg" viewBox="0 0 159.6 195.51"><defs><style>.cls-1{fill:#fff;opacity:0.4;}</style></defs><title>暂无照片</title><path class="cls-1" d="M152.63,175.23c0,1.53,0,3.64-.11,6.33h17.73v15.67h-3.09V184.29H152.31a20.85,20.85,0,0,1-6,13.13,21.12,21.12,0,0,0-2.26-2.56,18.45,18.45,0,0,0,4.42-7c.74-2.11,1.12-5.49,1.12-10.14V162.78h3v9.75h13V162.14h3.06v10.39h9.63v2.7ZM165.3,142.6H51.76a6.51,6.51,0,0,1-6.14-6.14v-6.14L19.08,45.89a5.59,5.59,0,0,1,3.34-7.18l.07,0L125.85,2.5a5.74,5.74,0,0,1,7.32,3.36L146.89,44.4H165.3a6.51,6.51,0,0,1,6.14,6.13v85.93a6.52,6.52,0,0,1-6.14,6.14ZM124.39,15,30.28,47.47,45.62,99.63V50.53a6.5,6.5,0,0,1,6.14-6.13h82.85ZM162.23,53.6H54.83v79.79h107.4ZM68.64,64.38a9.57,9.57,0,0,1,9.2,0,8.64,8.64,0,0,1,0,15.27,9.57,9.57,0,0,1-9.2,0,8.63,8.63,0,0,1,0-15.27Zm35.29,41.39L131.54,72,153,111.91v9.2H64v-10L85.51,93.5ZM41.37,173.54H34v-2.2q1.24-1.82,2.48-4H32.7v-2.15h4.87c.57-1.15,1.12-2.38,1.68-3.67l2.48.83c-.46,1-.92,1.9-1.41,2.84H50v2.15H39.21c-.74,1.4-1.51,2.75-2.3,4.07h4.46v-2.66h2.52v2.66h5.78v2.16H43.89v2.68q3-.18,5.68-.38c-.1.84-.17,1.62-.22,2.33l-5.46.29v2.88H41.37v-2.73c-2.8.18-5.67.38-8.63.61l-.29-2.45c3.16-.12,6.14-.26,8.92-.41v-2.82Zm21.14,23.8H59.92v-1.58H40.54v1.58H38V182.1H62.51Zm-2.59-13H40.54v3.53H59.92Zm0,5.65H40.54v3.56H59.92Zm.11-8.92V173.5H54.24a15.13,15.13,0,0,1-3.52,8.16c-.66-.62-1.33-1.22-2-1.79q3.24-3.35,3.24-9.5v-5.75a93.2,93.2,0,0,0,14.35-1.26l.83,2.37q-6.33.72-12.7,1.05v4.56H67.69v2.16H62.55v7.55Zm23.23-2.23H69.81V176h14.1a51.09,51.09,0,0,0,.9-8.34H72.54v-2.81h29.21v2.81H87.83a66.62,66.62,0,0,1-.94,8.34h17.59v2.8H86.28q-2.73,12.17-15,18.85a21.8,21.8,0,0,0-1.94-2.56A25.88,25.88,0,0,0,83.26,178.82Zm7.88,12.05c0,1.89.87,2.84,2.62,2.84h4.93c1.63,0,2.55-.71,2.77-2.12s.34-3.14.43-5.32c.91.33,1.92.68,3,1-.17,1.79-.38,3.58-.65,5.36q-.47,3.59-5.1,3.59H92.94c-3.15,0-4.71-1.65-4.71-5v-9.89h2.91v9.46Zm48.55,6.36H137v-1.72H110.66v1.72H108V163.4h31.72v33.83ZM137,166H110.66v26.93H137Zm-19.62,7.37a45.43,45.43,0,0,1-3.72,3.2c-.58-.6-1.16-1.19-1.76-1.76a32.08,32.08,0,0,0,8.09-8.38l2.37,1.11c-.45.67-.93,1.32-1.44,1.94h12.74v2.13a28,28,0,0,1-6.75,5.77,50,50,0,0,0,9.3,2,20.3,20.3,0,0,0-1.19,2.7,68,68,0,0,1-10.79-3.29,76.67,76.67,0,0,1-11.68,3.87,17,17,0,0,0-1.23-2.31,60.64,60.64,0,0,0,10.43-3,20.81,20.81,0,0,1-4.37-4Zm12.71-1.66H119a.69.69,0,0,1-.11.13,16.56,16.56,0,0,0,5.27,4.4,20.74,20.74,0,0,0,5.93-4.53ZM119,181.52q5.3.79,11.11,1.8l-.75,2.52q-5.51-1.12-11.08-1.91ZM132.53,189l-1,2.73q-8.48-1.84-17.08-3l.75-2.48q9,1.19,17.3,2.77Z" transform="translate(-18.74 -2.15)"/></svg>