<svg id="图层_1" data-name="图层 1" xmlns="http://www.w3.org/2000/svg" viewBox="0 0 15.81 15.81"><defs><style>.cls-1{fill:#fff;}</style></defs><title>回中</title><path class="cls-1" d="M4.9.07a.78.78,0,0,1,.77.77.77.77,0,0,1-.77.76H1.84a.26.26,0,0,0-.25.26h0V4.92a.77.77,0,0,1-.77.76.76.76,0,0,1-.76-.76h0V1.86A1.79,1.79,0,0,1,1.84.07Zm0,15.81a.77.77,0,0,0,.77-.76.78.78,0,0,0-.77-.77H1.84a.25.25,0,0,1-.25-.25V11a.78.78,0,0,0-.77-.77A.77.77,0,0,0,.06,11V14.1a1.78,1.78,0,0,0,1.78,1.78ZM11,.07a.78.78,0,0,0-.77.77A.77.77,0,0,0,11,1.6h3.06a.26.26,0,0,1,.25.26V4.92a.77.77,0,0,0,.77.76.76.76,0,0,0,.76-.76h0V1.86A1.79,1.79,0,0,0,14.08.07Zm0,15.81a.77.77,0,0,1-.77-.76.78.78,0,0,1,.77-.77h3.06a.25.25,0,0,0,.25-.25V11a.78.78,0,0,1,.77-.77.76.76,0,0,1,.76.77h0V14.1a1.78,1.78,0,0,1-1.78,1.78ZM8,10A2,2,0,1,0,8,5.94H8A2,2,0,0,0,8,10Z" transform="translate(-0.06 -0.07)"/></svg>