<svg id="图层_1" data-name="图层 1" xmlns="http://www.w3.org/2000/svg" viewBox="0 0 15.98 10.58"><defs><style>.cls-1{fill:#fff;}</style></defs><title>夜视</title><path class="cls-1" d="M15.62,11.06,13.41,10a.84.84,0,0,1-.48-.76V6.77A.85.85,0,0,1,13.41,6l2.21-1.08a.26.26,0,0,1,.24,0,.27.27,0,0,1,.12.22v5.67a.22.22,0,0,1-.12.21A.26.26,0,0,1,15.62,11.06ZM1.3,13.28C.14,13.14.07,12.93,0,12V4c0-1.11.19-1.3,1.3-1.3H11c1.29,0,1.22.29,1.29,1.3v8c0,1.11-.35,1.3-.79,1.3ZM10.09,9.6A2.38,2.38,0,0,1,9,10c-1.52.12-2.81-1.64-2.73-3.16a2.54,2.54,0,0,1,1.21-2,.12.12,0,0,0-.07-.23h0a3.25,3.25,0,0,0-3.24,3c-.17,2,1.49,4.15,3.47,4a3.26,3.26,0,0,0,2.67-1.76.16.16,0,0,0,0-.15A.21.21,0,0,0,10.09,9.6Zm-8-5.39a.76.76,0,0,0,0,1.51h0a.74.74,0,0,0,.73-.78A.75.75,0,0,0,2.13,4.21Z" transform="translate(0 -2.71)"/></svg>