<svg id="图层_1" data-name="图层 1" xmlns="http://www.w3.org/2000/svg" viewBox="0 0 16 12.45"><defs><style>.cls-1{fill:#fff;}</style></defs><title>OSD</title><path class="cls-1" d="M14.21,1.87A1.78,1.78,0,0,1,16,3.65v8.89a1.78,1.78,0,0,1-1.78,1.78H1.77A1.78,1.78,0,0,1,0,12.54V3.65A1.78,1.78,0,0,1,1.77,1.87H14.21ZM3.35,5.43a2.68,2.68,0,0,0-1,.18,2,2,0,0,0-.78.53A2.27,2.27,0,0,0,1.05,7,3.1,3.1,0,0,0,.88,8.05,3.32,3.32,0,0,0,1,9.11a2.44,2.44,0,0,0,.48.85,2.14,2.14,0,0,0,.79.54,2.78,2.78,0,0,0,1.07.19,2.71,2.71,0,0,0,1.06-.19A2.06,2.06,0,0,0,5.23,10a2.35,2.35,0,0,0,.48-.83,3.65,3.65,0,0,0,.16-1.08,3.06,3.06,0,0,0-.3-1.39,2,2,0,0,0-.86-.91A2.63,2.63,0,0,0,3.35,5.43Zm4.79,0a2.87,2.87,0,0,0-1,.17,1.58,1.58,0,0,0-.67.5,1.33,1.33,0,0,0-.23.75,1.27,1.27,0,0,0,.22.74A1.54,1.54,0,0,0,7,8.06a5.05,5.05,0,0,0,.7.25l.52.12.35.11a.9.9,0,0,1,.4.24.57.57,0,0,1,.16.41.64.64,0,0,1-.29.53,1.23,1.23,0,0,1-.75.21,1.21,1.21,0,0,1-.54-.1.89.89,0,0,1-.31-.27,1.28,1.28,0,0,1-.15-.25l-.06-.16a.87.87,0,0,0-.2-.31.43.43,0,0,0-.27-.1.47.47,0,0,0-.33.13.41.41,0,0,0-.13.33,1.27,1.27,0,0,0,.21.66,1.76,1.76,0,0,0,.57.55,2.42,2.42,0,0,0,1.24.28,2.62,2.62,0,0,0,1.09-.21,1.58,1.58,0,0,0,.69-.57,1.49,1.49,0,0,0,.24-.83A1.39,1.39,0,0,0,10,8.43,1.18,1.18,0,0,0,9.65,8a2.19,2.19,0,0,0-.59-.3l-.57-.17L8,7.41l-.25-.07a1.6,1.6,0,0,1-.3-.13A.6.6,0,0,1,7.26,7a.47.47,0,0,1-.08-.26.52.52,0,0,1,.24-.43,1.16,1.16,0,0,1,.65-.17,1,1,0,0,1,.62.16A1,1,0,0,1,9,6.64L9,6.77a1,1,0,0,0,.2.29.36.36,0,0,0,.26.09A.41.41,0,0,0,9.82,7,.51.51,0,0,0,10,6.67a.91.91,0,0,0-.1-.41,1.49,1.49,0,0,0-.33-.41A1.76,1.76,0,0,0,9,5.54a2.48,2.48,0,0,0-.81-.11Zm4.45.08H11.24a.66.66,0,0,0-.48.15.66.66,0,0,0-.15.38V9.88a1.49,1.49,0,0,0,0,.4.41.41,0,0,0,.19.24.72.72,0,0,0,.32.08h1.45a4,4,0,0,0,.63,0,1.85,1.85,0,0,0,.52-.16,1.82,1.82,0,0,0,.45-.29,2.18,2.18,0,0,0,.42-.54,2.49,2.49,0,0,0,.25-.69A4.25,4.25,0,0,0,15,8.05,2.56,2.56,0,0,0,14.17,6a1.68,1.68,0,0,0-.68-.37,3.36,3.36,0,0,0-.7-.09Zm-9.24.74a1.41,1.41,0,0,1,.77.21,1.28,1.28,0,0,1,.52.62,2.37,2.37,0,0,1,.18,1,2.33,2.33,0,0,1-.2,1,1.32,1.32,0,0,1-.52.61,1.36,1.36,0,0,1-.73.2,1.31,1.31,0,0,1-1-.46A1.8,1.8,0,0,1,2,8.83a2.94,2.94,0,0,1-.11-.78A2.67,2.67,0,0,1,2,7.27a1.73,1.73,0,0,1,.3-.57,1.34,1.34,0,0,1,.45-.34A1.56,1.56,0,0,1,3.35,6.25Zm9,.08a2.71,2.71,0,0,1,.81.1,1,1,0,0,1,.56.48A2.25,2.25,0,0,1,13.92,8a1.93,1.93,0,0,1-.52,1.51.72.72,0,0,1-.27.15,1.28,1.28,0,0,1-.3.07H11.64V6.33Z" transform="translate(0.01 -1.87)"/></svg>