<svg id="图层_1" data-name="图层 1" xmlns="http://www.w3.org/2000/svg" viewBox="0 0 16.34 13.15"><defs><style>.cls-1{fill:#5e5e5e;}.cls-2{fill:#fff;}</style></defs><title>拍照</title><path class="cls-1" d="M16.41,13Z" transform="translate(-0.08 -1.25)"/><path class="cls-2" d="M7.94,6a2.31,2.31,0,1,0,2.32,2.31A2.32,2.32,0,0,0,7.94,6Z" transform="translate(-0.08 -1.25)"/><path class="cls-2" d="M15.92,12.41l0,0V4a1,1,0,0,0-1-1H12l0,0-.38-.76c-.05-.1-.44-.93-1-.93H5.39c-.55,0-.95.88-1,.92L4,2.94,4,3h-3a1,1,0,0,0-1,1v9.48a1,1,0,0,0,1,1H14.92a1,1,0,0,0,1-1v-1l0,0Zm-8-.77a3.34,3.34,0,1,1,3.35-3.33A3.35,3.35,0,0,1,7.94,11.64Zm5.12-5.77a.78.78,0,1,1,.79-.78A.78.78,0,0,1,13.06,5.87Z" transform="translate(-0.08 -1.25)"/></svg>