<svg id="图层_1" data-name="图层 1" xmlns="http://www.w3.org/2000/svg" viewBox="0 0 15.93 9.33"><defs><style>.cls-1{fill:#fff;}</style></defs><title>紧急降落</title><path class="cls-1" d="M15.94,9.33C16,7.75,13,7.47,9.65,7.64a.93.93,0,0,0-.14-.38L6.45,2.72a.92.92,0,0,0-1.27-.26.9.9,0,0,0-.31.39l0,0,.22,5.17L3,8.35l-.42-.61L1.14,6,0,5.67,1,9.05l2,1.1c1.62,0,3.92.28,6.61.2C14.62,10.2,15.89,10.18,15.94,9.33Z" transform="translate(-0.01 -2.31)"/><rect class="cls-1" x="2.56" y="8.85" width="11.15" height="0.48"/></svg>