<svg id="图层_1" data-name="图层 1" xmlns="http://www.w3.org/2000/svg" viewBox="0 0 12.79 15.64"><defs><style>.cls-1{fill:#fff;}</style></defs><title>执行新航向</title><path class="cls-1" d="M5.42,7.43H7.48V6.32H5.42a2,2,0,0,1,0-3.92H11.3a1.68,1.68,0,0,0,.39.6,1.74,1.74,0,0,0,1.84.36,1.71,1.71,0,0,0,.76-.62A1.63,1.63,0,0,0,14.08.65a1.73,1.73,0,0,0-1.2-.49h0A1.69,1.69,0,0,0,12,.44a1.62,1.62,0,0,0-.66.84H5.42a3.08,3.08,0,1,0,0,6.15Zm6.82-6.25a.94.94,0,0,1,.64-.26,1,1,0,0,1,.51.15.9.9,0,0,1,.14,1.38.93.93,0,0,1-1,.19.89.89,0,0,1-.41-.33A.86.86,0,0,1,12,1.82.9.9,0,0,1,12.24,1.18Z" transform="translate(-1.78 -0.16)"/><path class="cls-1" d="M7.48,13.59H5.07A1.67,1.67,0,0,0,4.66,13a1.71,1.71,0,0,0-2.13-.21,1.69,1.69,0,0,0-.62.75,1.63,1.63,0,0,0,.37,1.81,1.7,1.7,0,0,0,2.78-.61H7.48ZM4.11,14.76a.91.91,0,0,1-1,.19.92.92,0,0,1-.41-.32A.88.88,0,0,1,3,13.4a1,1,0,0,1,.17-.1.92.92,0,0,1,.85.09.87.87,0,0,1,.14,1.37Z" transform="translate(-1.78 -0.16)"/><path class="cls-1" d="M8.7,14.72H6V13.58H8.7a2.87,2.87,0,0,0,2.88-2.87v-.39A2.88,2.88,0,0,0,8.7,7.45H6V6.32H8.7a4,4,0,0,1,4,4v.39A4,4,0,0,1,8.7,14.72Z" transform="translate(-1.78 -0.16)"/></svg>