<svg id="图层_1" data-name="图层 1" xmlns="http://www.w3.org/2000/svg" viewBox="0 0 15.22 15.98"><defs><style>.cls-1{fill:#fff;}</style></defs><title>飞行航线</title><path class="cls-1" d="M11.67.79a.92.92,0,0,0-.65.26.93.93,0,0,0-.27.65.92.92,0,0,0,.15.51,1,1,0,0,0,.42.33.94.94,0,0,0,1-.19.93.93,0,0,0,.2-1,.91.91,0,0,0-.34-.41.93.93,0,0,0-.52-.15Zm0-.78A1.76,1.76,0,0,1,12.89.5a1.68,1.68,0,0,1,.22,2.15,1.71,1.71,0,0,1-.78.62,1.75,1.75,0,0,1-1.88-.37,1.64,1.64,0,0,1-.39-.61h-6a2,2,0,0,0,0,4H7.49a4.34,4.34,0,0,1,2.64.9,4.82,4.82,0,0,0-1.21.58,3.2,3.2,0,0,0-1.43-.34H4.06a3.15,3.15,0,1,1,0-6.29h6a1.74,1.74,0,0,1,.68-.86A1.69,1.69,0,0,1,11.67,0ZM7.42,13.73H3.7a1.66,1.66,0,0,0-.42-.65,1.73,1.73,0,0,0-2.17-.21,1.7,1.7,0,0,0-.64.76,1.66,1.66,0,0,0,.38,1.85,1.74,1.74,0,0,0,1.88.37,1.69,1.69,0,0,0,1-1H7.49a4.52,4.52,0,0,0,.74-.06,4.55,4.55,0,0,1-.81-1.09Zm-4.84-.2a.9.9,0,0,1,.14,1.4.94.94,0,0,1-1,.2,1,1,0,0,1-.42-.34.9.9,0,0,1,.24-1.25l.18-.1A.93.93,0,0,1,2.58,13.53Zm9,.88a2.83,2.83,0,1,0-2.88-2.83A2.86,2.86,0,0,0,11.55,14.41Zm4-2.83a4,4,0,1,1-4-3.94,4,4,0,0,1,4,3.94Zm-5.27-.92v1.58a.57.57,0,0,0,.83.51L12,12.3,12.7,12a.57.57,0,0,0,.26-.77.65.65,0,0,0-.26-.26L12,10.59l-.89-.45a.58.58,0,0,0-.77.26.57.57,0,0,0-.06.25Z" transform="translate(-0.34 0)"/></svg>