<svg id="图层_1" data-name="图层 1" xmlns="http://www.w3.org/2000/svg" viewBox="0 0 12.25 15.42"><defs><style>.cls-1{fill:#fff;}</style></defs><title>锁定</title><path class="cls-1" d="M5.84,6.43H3.78V4a3.43,3.43,0,0,1,.31-1.47A3.74,3.74,0,0,1,5,1.37,3.72,3.72,0,0,1,6.24.56,4.34,4.34,0,0,1,7.87.26a3.91,3.91,0,0,1,1.51.3,4.07,4.07,0,0,1,1.3.81,4.2,4.2,0,0,1,.9,1.19A3.3,3.3,0,0,1,11.91,4v2.4h-2V4.48a2.13,2.13,0,0,0-.57-1.59A2.11,2.11,0,0,0,7.8,2.32a1.86,1.86,0,0,0-1.42.57,2.2,2.2,0,0,0-.54,1.59Zm7.06,1a1.06,1.06,0,0,1,.76.31A1.07,1.07,0,0,1,14,8.5v5.07a2.27,2.27,0,0,1-.16.83,2.11,2.11,0,0,1-.42.67,2.06,2.06,0,0,1-.64.45,2,2,0,0,1-.81.16H3.68a1.87,1.87,0,0,1-.8-.16,2,2,0,0,1-.62-.43,1.86,1.86,0,0,1-.39-.63,2.19,2.19,0,0,1-.14-.77V8.5A1.06,1.06,0,0,1,2,7.73a1,1,0,0,1,.75-.31H12.9Z" transform="translate(-1.73 -0.26)"/></svg>