<svg id="图层_1" data-name="图层 1" xmlns="http://www.w3.org/2000/svg" viewBox="0 0 15.98 9.38"><defs><style>.cls-1{fill:#fff;}</style></defs><title>跟随</title><path class="cls-1" d="M16,8.15a.81.81,0,0,1-.28.6l-4.62,3.88a.78.78,0,0,1-1.29-.46.78.78,0,0,1,.28-.74L14,8.15,10,4.8a.77.77,0,0,1-.07-1.07A.78.78,0,0,1,11,3.61l4.7,3.94A.78.78,0,0,1,16,8.15Zm-12.13,0a1,1,0,1,0,1-1A1,1,0,0,0,3.85,8.12ZM0,8.12a1,1,0,1,0,1-1A1,1,0,0,0,0,8.12Z" transform="translate(0.01 -3.45)"/><path class="cls-1" d="M7.7,8.12a1,1,0,0,0,1,1H10.6a1,1,0,0,0,0-1.93H8.67A1,1,0,0,0,7.7,8.12Z" transform="translate(0.01 -3.45)"/></svg>