<svg id="图层_1" data-name="图层 1" xmlns="http://www.w3.org/2000/svg" viewBox="0 0 15.92 15.49"><defs><style>.cls-1{fill:#fff;}</style></defs><title>俯拍</title><path class="cls-1" d="M6.2,6.24H9.74a.89.89,0,0,0,.89-.89V3.58a.89.89,0,0,0-.89-.88H6.2a.89.89,0,0,0-.88.88V5.35A.89.89,0,0,0,6.2,6.24ZM8,3.58A.89.89,0,1,1,8,5.35.89.89,0,0,1,8,3.58ZM6.42,7.52a.7.7,0,0,0-.93.13L5,8.45a.69.69,0,0,0,.14.93A.7.7,0,0,0,6,9.25l.53-.8a.65.65,0,0,0-.14-.93Zm4,.18a.66.66,0,0,0-1.06.79l.53.8A.66.66,0,1,0,11,8.49l-.53-.79ZM4.21,10.62a.68.68,0,0,0-.93.13l-.53.8a.7.7,0,0,0,.13.93.69.69,0,0,0,.93-.14l.53-.79A.64.64,0,0,0,4.21,10.62Zm8.45.17a.66.66,0,0,0-1.06.8l.53.8a.66.66,0,1,0,1.06-.8ZM2,13.71a.69.69,0,0,0-.93.14l-.53.79a.69.69,0,0,0,.13.93.69.69,0,0,0,.93-.13l.53-.8A.65.65,0,0,0,2,13.71Zm12.87.18a.66.66,0,0,0-1.06.8l.53.79a.66.66,0,1,0,1.06-.79ZM15.49.27H.45A.41.41,0,0,0,0,.71V2H4.74A2.79,2.79,0,0,1,6.2,1.59H9.74A2.68,2.68,0,0,1,11.2,2h4.73V.71A.41.41,0,0,0,15.49.27Z" transform="translate(-0.01 -0.27)"/></svg>