<svg id="图层_1" data-name="图层 1" xmlns="http://www.w3.org/2000/svg" viewBox="0 0 19.92 15.19"><defs><style>.cls-1{fill:#fff;}</style></defs><title>解除悬停</title><polygon class="cls-1" points="15.35 15.17 1.99 1.77 3.21 0.55 16.56 13.94 15.35 15.17"/><path class="cls-1" d="M6.94,5a6.07,6.07,0,0,1,6.64.27L14.36,4a7.62,7.62,0,0,0-8.53-.06Z" transform="translate(-0.04 -2.62)"/><path class="cls-1" d="M16,11a6,6,0,0,1-.77,2.23l1.11,1.11A7.61,7.61,0,0,0,17.49,11H20L16.61,6l-3.35,5Z" transform="translate(-0.04 -2.62)"/><path class="cls-1" d="M4,9.38a6,6,0,0,1,.78-2.24L3.71,6A7.62,7.62,0,0,0,2.5,9.38H0l3.35,5,3.34-5Z" transform="translate(-0.04 -2.62)"/><path class="cls-1" d="M13.07,15.41a6.09,6.09,0,0,1-6.63-.24l-.92,1.22a7.62,7.62,0,0,0,8.65.13Z" transform="translate(-0.04 -2.62)"/></svg>