<svg id="图层_1" data-name="图层 1" xmlns="http://www.w3.org/2000/svg" viewBox="0 0 15.94 13.2"><defs><style>.cls-1{fill:#fff;}</style></defs><title>重置</title><path class="cls-1" d="M11,12.33a5.2,5.2,0,0,1-3.19,1l-.44,0-.18,0-.35-.05-.2,0-.33-.09-.15-.06-.37-.14-.08,0-.42-.21h0a5.52,5.52,0,0,1-1.24-1v0a2.91,2.91,0,0,1-.33-.37l-.06-.09A5.8,5.8,0,0,1,2.4,7.66H3.72L2.12,4.41,0,7.7H1.33a7.12,7.12,0,0,0,1.16,3.89l0,.05c.07.11.16.21.24.32l.09.12c.12.15.25.29.37.43l0,0a6.54,6.54,0,0,0,1.47,1.16l0,0c.15.09.31.17.47.25l.12,0,.43.17.2.07.38.1.26.06.1,0,.37,0,.13,0c.22,0,.44,0,.66,0a5.86,5.86,0,0,0,3.93-1.41.64.64,0,0,0,.11-.83.73.73,0,0,0-1,0Zm3.69-4.11A7,7,0,0,0,13.5,4.35l0-.06-.29-.39,0,0a6.55,6.55,0,0,0-2.44-1.93l-.09,0a3.66,3.66,0,0,0-.46-.18L10,1.66l-.42-.11-.23-.06-.11,0-.31,0-.21,0-.52,0H8.09A6.38,6.38,0,0,0,4.35,2.6.57.57,0,1,0,5,3.55a5.05,5.05,0,0,1,3.16-1,3.87,3.87,0,0,1,.48,0l.14,0a2.32,2.32,0,0,1,.38.06l.17,0,.37.1.11,0,.41.16,0,0a5.45,5.45,0,0,1,2,1.61h0a5.83,5.83,0,0,1,1.23,3.62H12.19l1.68,3.28L16,8.22Z" transform="translate(-0.02 -1.36)"/></svg>