<svg id="图层_1" data-name="图层 1" xmlns="http://www.w3.org/2000/svg" viewBox="0 0 19.88 19.88"><defs><style>.cls-1{fill:#fff;}</style></defs><title>立即返航</title><path class="cls-1" d="M13.72,11.19v1c2.7.52,4.55,1.61,4.55,2.86,0,1.77-3.7,3.2-8.25,3.2s-8.26-1.43-8.26-3.2c0-1.25,1.85-2.33,4.55-2.86v-1C2.66,11.86.07,13.49.07,15.4.07,17.91,4.53,20,10,20S20,17.91,20,15.4c0-1.91-2.59-3.55-6.24-4.21Z" transform="translate(-0.07 -0.07)"/><path class="cls-1" d="M6.38,12.89l-.83,3.73H7.62L7.81,15h3.77l.18,1.66h2.08L13,12.89H11.35l.14,1.24H7.9L8,12.89Zm8.37-6.17h-2.9V5.88c0-2.1,2.19-3.74,4.14-3.74A7,7,0,0,1,19.3,3,6.75,6.75,0,0,0,13.91.07C8.69.07,7.84,4.84,7.72,5.74c0,.09,0,1,0,1H4.81l5,5.81,5-5.81Z" transform="translate(-0.07 -0.07)"/></svg>