<svg id="图层_1" data-name="图层 1" xmlns="http://www.w3.org/2000/svg" viewBox="0 0 22 25.9"><defs><style>.cls-1{fill:#fff;}</style></defs><title>密码-26px</title><path class="cls-1" d="M19.1,26H6.9A4.91,4.91,0,0,1,2,21.1V14.7A4.91,4.91,0,0,1,6.9,9.8H19.1A4.91,4.91,0,0,1,24,14.7v6.4A4.91,4.91,0,0,1,19.1,26ZM6.9,11.1a3.59,3.59,0,0,0-3.6,3.6v6.4a3.59,3.59,0,0,0,3.6,3.6H19.1a3.59,3.59,0,0,0,3.6-3.6V14.7a3.59,3.59,0,0,0-3.6-3.6Z" transform="translate(-2 -0.1)"/><path class="cls-1" d="M6.7,11.1a.68.68,0,0,1-.7-.7V5.5A5.49,5.49,0,0,1,11.6.1h2.8A5.49,5.49,0,0,1,20,5.5V7.7a.7.7,0,0,1-1.4,0V5.5a4.17,4.17,0,0,0-4.3-4.1H11.5A4.17,4.17,0,0,0,7.2,5.5v4.9C7.4,10.8,7.1,11.1,6.7,11.1Z" transform="translate(-2 -0.1)"/><path class="cls-1" d="M13.1,17.6a2.33,2.33,0,0,1-2.3-2.3,2.3,2.3,0,1,1,4.6,0A2.33,2.33,0,0,1,13.1,17.6Zm0-3.1a.9.9,0,1,0,.9.9A.9.9,0,0,0,13.1,14.5Z" transform="translate(-2 -0.1)"/><rect class="cls-1" x="10.2" y="16.6" width="1.7" height="3.6"/></svg>