<svg id="图层_1" data-name="图层 1" xmlns="http://www.w3.org/2000/svg" viewBox="0 0 25.85 25.6"><defs><style>.cls-1{fill:#fff;}</style></defs><title>账号-26px</title><path class="cls-1" d="M13,15.4A7.6,7.6,0,0,1,5.4,7.8,7.51,7.51,0,0,1,13,.3a7.6,7.6,0,0,1,7.6,7.6A7.51,7.51,0,0,1,13,15.4ZM13,1.6a6.2,6.2,0,1,0,6.2,6.2A6.23,6.23,0,0,0,13,1.6Z" transform="translate(-0.07 -0.3)"/><path class="cls-1" d="M.7,25.7H.6a.62.62,0,0,1-.5-.8,13.37,13.37,0,0,1,13-10.6.7.7,0,0,1,0,1.4A12,12,0,0,0,1.4,25.2C1.2,25.5,1,25.7.7,25.7Z" transform="translate(-0.07 -0.3)"/><path class="cls-1" d="M25.3,25.8a.56.56,0,0,1-.6-.5,11.49,11.49,0,0,0-4.1-6.8.64.64,0,1,1,.8-1,13.23,13.23,0,0,1,4.5,7.6.69.69,0,0,1-.5.8C25.4,25.8,25.4,25.8,25.3,25.8Z" transform="translate(-0.07 -0.3)"/></svg>