<svg id="图层_1" data-name="图层 1" xmlns="http://www.w3.org/2000/svg" viewBox="0 0 42.04 28.5"><defs><style>.cls-1{fill:#fff;}</style></defs><title>多云</title><path class="cls-1" d="M28.78,24.68a6.93,6.93,0,0,0-3.45,1.06c0-.15,0-.26,0-.38a9.74,9.74,0,0,0-9.62-9.83,10,10,0,0,0-9.47,7.24A7.94,7.94,0,0,0,.17,30.49a7.85,7.85,0,0,0,6.64,7.94H29.46a6.89,6.89,0,0,0-.68-13.75Z" transform="translate(-0.17 -9.93)"/><path class="cls-1" d="M42.21,24.73a6.18,6.18,0,0,0-9.49-5.42c0-.12,0-.23,0-.35a8.94,8.94,0,0,0-8.84-9,9.07,9.07,0,0,0-6.82,3.15,12.25,12.25,0,0,1,10.4,9.18,9.29,9.29,0,0,1,10.61,8.36A6.32,6.32,0,0,0,42.21,24.73Z" transform="translate(-0.17 -9.93)"/></svg>