<svg id="图层_1" data-name="图层 1" xmlns="http://www.w3.org/2000/svg" viewBox="0 0 41.69 33.19"><defs><style>.cls-1{fill:#fff;}</style></defs><title>多云</title><path class="cls-1" d="M40.54,16.75h-2a1.49,1.49,0,1,0,0,3h2a1.49,1.49,0,1,0,0-3ZM20.62,12.31a1.48,1.48,0,0,0,2.09-2.09l-1.4-1.39a1.52,1.52,0,0,0-2.1,0,1.5,1.5,0,0,0,0,2.08ZM38.13,8.85a1.51,1.51,0,0,0-2.09,0l-1.41,1.39a1.47,1.47,0,1,0,2.1,2.07l1.4-1.38A1.48,1.48,0,0,0,38.13,8.85Zm-9.47,1a1.48,1.48,0,0,0,1.49-1.49v-2a1.49,1.49,0,0,0-3,0v2A1.48,1.48,0,0,0,28.66,9.86Zm.15,14.56a6.86,6.86,0,0,1,.67,13.68H6.93a7.81,7.81,0,0,1-6.6-7.9,7.89,7.89,0,0,1,6.06-7.68,9.92,9.92,0,0,1,9.43-7.21,9.69,9.69,0,0,1,9.57,9.78c0,.13,0,.23,0,.38A6.88,6.88,0,0,1,28.81,24.42Z" transform="translate(-0.33 -4.92)"/><path class="cls-1" d="M27.75,22.15a9.58,9.58,0,0,1,1.29-.1,9.26,9.26,0,0,1,4.9,1.39,7.44,7.44,0,1,0-11.66-8.77,12.44,12.44,0,0,1,5.47,7.48Z" transform="translate(-0.33 -4.92)"/></svg>