<svg id="图层_1" data-name="图层 1" xmlns="http://www.w3.org/2000/svg" viewBox="0 0 16.91 12.06"><defs><style>.cls-1{fill:#fcfcfc;}</style></defs><title>雾</title><path class="cls-1" d="M2.6,2.68h7.59a.61.61,0,1,1,0,1.21H2.6a.61.61,0,0,1,0-1.21Z" transform="translate(0.03 -2.68)"/><path class="cls-1" d="M12.63,2.68h3.63a.61.61,0,1,1,0,1.21H12.63a.61.61,0,0,1,0-1.21Z" transform="translate(0.03 -2.68)"/><path class="cls-1" d="M14.25,6.3H6.66a.61.61,0,1,0,0,1.21h7.59a.61.61,0,1,0,0-1.21Z" transform="translate(0.03 -2.68)"/><path class="cls-1" d="M4.22,6.3H.59a.61.61,0,1,0,0,1.21H4.22a.61.61,0,1,0,0-1.21Z" transform="translate(0.03 -2.68)"/><path class="cls-1" d="M2.6,9.92h7.59a.6.6,0,1,1,0,1.2H2.6a.6.6,0,0,1,0-1.2Z" transform="translate(0.03 -2.68)"/><path class="cls-1" d="M12.63,9.92h3.63a.6.6,0,1,1,0,1.2H12.63a.6.6,0,1,1,0-1.2Z" transform="translate(0.03 -2.68)"/><path class="cls-1" d="M13.85,13.54H6.26a.6.6,0,1,0,0,1.2h7.59a.6.6,0,1,0,0-1.2Z" transform="translate(0.03 -2.68)"/></svg>