<svg id="图层_1" data-name="图层 1" xmlns="http://www.w3.org/2000/svg" viewBox="0 0 16.4 14.17"><defs><style>.cls-1{fill:#fcfcfc;}</style></defs><title>霾</title><path class="cls-1" d="M12.1,4.34A4.58,4.58,0,0,0,8.37,6.18,4.56,4.56,0,0,0,4.64,4.34,4.3,4.3,0,0,0,.17,8.44a4.3,4.3,0,0,0,4.47,4.1,4.58,4.58,0,0,0,3.73-1.83,4.59,4.59,0,0,0,3.73,1.83,4.28,4.28,0,0,0,4.47-4.1A4.29,4.29,0,0,0,12.1,4.34Zm-7.5,6.9A3.06,3.06,0,0,1,1.36,8.41,3.06,3.06,0,0,1,4.6,5.57,3.06,3.06,0,0,1,7.84,8.41,3.06,3.06,0,0,1,4.6,11.24Zm7.64,0A3.06,3.06,0,0,1,9,8.42a3.07,3.07,0,0,1,3.24-2.84,3.08,3.08,0,0,1,3.25,2.84A3.07,3.07,0,0,1,12.24,11.25Z" transform="translate(-0.17 -1.36)"/><path class="cls-1" d="M2.41,1.36H.91a.75.75,0,0,0,0,1.49h1.5a.75.75,0,0,0,0-1.49Z" transform="translate(-0.17 -1.36)"/><path class="cls-1" d="M2.41,1.36H.91a.75.75,0,0,0,0,1.49h1.5a.75.75,0,0,0,0-1.49Z" transform="translate(-0.17 -1.36)"/><path class="cls-1" d="M2.41,14H.91a.74.74,0,0,0-.74.74.75.75,0,0,0,.74.75h1.5a.75.75,0,0,0,.74-.75A.74.74,0,0,0,2.41,14Z" transform="translate(-0.17 -1.36)"/><path class="cls-1" d="M2.41,14H.91a.74.74,0,0,0-.74.74.75.75,0,0,0,.74.75h1.5a.75.75,0,0,0,.74-.75A.74.74,0,0,0,2.41,14Z" transform="translate(-0.17 -1.36)"/><path class="cls-1" d="M9.12,14H7.63a.74.74,0,0,0-.75.74.75.75,0,0,0,.75.75H9.12a.75.75,0,0,0,.74-.75A.74.74,0,0,0,9.12,14Z" transform="translate(-0.17 -1.36)"/><path class="cls-1" d="M9.12,14H7.63a.74.74,0,0,0-.75.74.75.75,0,0,0,.75.75H9.12a.75.75,0,0,0,.74-.75A.74.74,0,0,0,9.12,14Z" transform="translate(-0.17 -1.36)"/><path class="cls-1" d="M15.83,14H14.34a.75.75,0,0,0-.75.74.76.76,0,0,0,.75.75h1.49a.75.75,0,0,0,.74-.75A.74.74,0,0,0,15.83,14Z" transform="translate(-0.17 -1.36)"/><path class="cls-1" d="M15.83,14H14.34a.75.75,0,0,0-.75.74.76.76,0,0,0,.75.75h1.49a.75.75,0,0,0,.74-.75A.74.74,0,0,0,15.83,14Z" transform="translate(-0.17 -1.36)"/><path class="cls-1" d="M9.12,1.36H7.63a.75.75,0,1,0,0,1.49H9.12a.75.75,0,0,0,0-1.49Z" transform="translate(-0.17 -1.36)"/><path class="cls-1" d="M9.12,1.36H7.63a.75.75,0,1,0,0,1.49H9.12a.75.75,0,0,0,0-1.49Z" transform="translate(-0.17 -1.36)"/><path class="cls-1" d="M14.34,2.85h1.49a.75.75,0,0,0,0-1.49H14.34a.75.75,0,1,0,0,1.49Z" transform="translate(-0.17 -1.36)"/><path class="cls-1" d="M15.83,1.36H14.34a.75.75,0,1,0,0,1.49h1.49a.75.75,0,0,0,0-1.49Z" transform="translate(-0.17 -1.36)"/></svg>