<svg id="图层_1" data-name="图层 1" xmlns="http://www.w3.org/2000/svg" viewBox="0 0 41.4 38.55"><defs><style>.cls-1{fill:#fff;}</style></defs><title>下雨</title><path class="cls-1" d="M11.15,33.23a2.07,2.07,0,0,0-2.85.55L6.94,36.13a2,2,0,0,0,.93,2.76,1.85,1.85,0,0,0,2.62-.68l1.37-2.35A1.86,1.86,0,0,0,11.15,33.23Zm12-.77a2.62,2.62,0,0,0-3.61.69l-1.75,3A2.59,2.59,0,0,0,19,39.63a2.32,2.32,0,0,0,3.33-.88l1.75-3A2.31,2.31,0,0,0,23.15,32.46Zm11.08.77a2.07,2.07,0,0,0-2.85.55L30,36.13A2,2,0,0,0,31,38.89a1.85,1.85,0,0,0,2.62-.68l1.37-2.35A1.86,1.86,0,0,0,34.23,33.23Zm-.5-21.11a8.15,8.15,0,0,0-4,1.23c0-.16,0-.3,0-.44A11.35,11.35,0,0,0,18.53,1.46a11.65,11.65,0,0,0-11,8.45,9.25,9.25,0,0,0-7.08,9,9.14,9.14,0,0,0,7.74,9.24H34.58a8,8,0,0,0,7.22-7.95,8.14,8.14,0,0,0-8.07-8.07Z" transform="translate(-0.4 -1.46)"/></svg>