<svg id="图层_1" data-name="图层 1" xmlns="http://www.w3.org/2000/svg" viewBox="0 0 15.35 16.9"><defs><style>.cls-1{fill:#fff;}</style></defs><title>雪</title><path class="cls-1" d="M15.78,12.06l-2.29-1.32,2.1-.65A.58.58,0,0,0,16,9.36.56.56,0,0,0,15.24,9l-3.11,1L9.54,8.46,12.08,7l3.16,1,.17,0a.57.57,0,0,0,.55-.4.58.58,0,0,0-.37-.73l-2.15-.67,2.32-1.34a.57.57,0,1,0-.58-1L12.89,5.2l.48-2.15a.57.57,0,0,0-.43-.69.58.58,0,0,0-.69.44L11.53,6,9,7.47V4.55l2.43-2.24a.56.56,0,0,0,0-.81.57.57,0,0,0-.81,0L9,3V.58a.58.58,0,0,0-1.16,0V3L6.17,1.46a.58.58,0,0,0-.78.85l2.4,2.21V7.45L5.25,6,4.54,2.81a.58.58,0,1,0-1.13.25L3.89,5.2,1.59,3.88a.57.57,0,0,0-.57,1L3.35,6.22,1.2,6.89A.58.58,0,0,0,1.37,8a.47.47,0,0,0,.17,0L4.71,7,7.23,8.46,4.65,10,1.54,9a.57.57,0,0,0-.72.38.58.58,0,0,0,.38.72l2.1.66L1,12.06a.57.57,0,0,0-.21.79.56.56,0,0,0,.5.29.6.6,0,0,0,.28-.08l2.34-1.34-.5,2.19a.58.58,0,0,0,.44.69l.13,0a.59.59,0,0,0,.56-.45l.72-3.24L7.79,9.47v3l-2.4,2.21a.58.58,0,0,0,0,.82.58.58,0,0,0,.81,0L7.79,14v2.3a.58.58,0,0,0,1.16,0V14l1.65,1.52a.58.58,0,0,0,.78-.85L9,12.43v-3l2.57,1.49.73,3.23a.58.58,0,0,0,.56.45h.13a.57.57,0,0,0,.43-.69l-.49-2.2,2.32,1.34a.6.6,0,0,0,.29.08.57.57,0,0,0,.5-.29A.58.58,0,0,0,15.78,12.06Z" transform="translate(-0.71 0)"/></svg>