<svg id="图层_1" data-name="图层 1" xmlns="http://www.w3.org/2000/svg" viewBox="0 0 40.93 40.06"><defs><style>.cls-1{fill:#fff;}</style></defs><title>晴</title><path class="cls-1" d="M39.27,19.11h-3a2.26,2.26,0,0,0,0,4.52h3a2.26,2.26,0,0,0,0-4.52ZM9,12.37A2.25,2.25,0,0,0,12.22,9.2L10.09,7.1a2.28,2.28,0,0,0-3.18,0,2.23,2.23,0,0,0,0,3.14ZM35.61,7.13a2.28,2.28,0,0,0-3.18,0L30.3,9.23a2.28,2.28,0,0,0,0,3.18,2.32,2.32,0,0,0,3.18,0l2.13-2.09A2.25,2.25,0,0,0,35.61,7.13ZM21.24,8.65A2.24,2.24,0,0,0,23.5,6.4v-3a2.27,2.27,0,0,0-2.26-2.26A2.24,2.24,0,0,0,19,3.41v3A2.23,2.23,0,0,0,21.24,8.65Z" transform="translate(-0.59 -1.15)"/><path class="cls-1" d="M2.85,23.25h3a2.26,2.26,0,1,0,0-4.51h-3a2.26,2.26,0,1,0,0,4.51ZM33.08,30a2.25,2.25,0,1,0-3.18,3.18L32,35.27a2.27,2.27,0,0,0,3.17,0,2.25,2.25,0,0,0,0-3.15ZM6.5,35.24a2.28,2.28,0,0,0,3.18,0l2.13-2.1a2.28,2.28,0,0,0,0-3.18,2.33,2.33,0,0,0-3.18,0L6.5,32.09A2.25,2.25,0,0,0,6.5,35.24Zm14.37-1.53A2.25,2.25,0,0,0,18.61,36v3a2.26,2.26,0,0,0,4.52,0V36A2.25,2.25,0,0,0,20.87,33.71Z" transform="translate(-0.59 -1.15)"/><circle class="cls-1" cx="20.53" cy="20.31" r="11.17"/></svg>