<?xml version="1.0" encoding="utf-8"?>
<!-- Generator: Adobe Illustrator 21.0.0, SVG Export Plug-In . SVG Version: 6.00 Build 0)  -->
<svg version="1.1" id="图层_1" xmlns="http://www.w3.org/2000/svg" xmlns:xlink="http://www.w3.org/1999/xlink" x="0px" y="0px"
	 viewBox="0 0 60 43" style="enable-background:new 0 0 60 43;" xml:space="preserve">
<style type="text/css">
	.st0{fill:#362C31;}
	.st1{fill:#6879BA;}
	.st2{fill:#3A1E45;}
</style>
<g>
	<g>
		<g>
			<path class="st0" d="M43.9,34.5v5.4c0,1.7-1.4,3.1-3.1,3.1H9.3c-1.7,0-3.1-1.4-3.1-3.1v-4.8c0-0.2,0-0.4,0-0.4l3-2.8l9.4,7.6
				l-4.2-5l11.1-9.3l14.3,11.7L36.4,33l2.3-2.7L43.9,34.5z"/>
		</g>
	</g>
	<g>
		<g>
			<path class="st1" d="M8.6,3.4h32.2c1.7,0,3.1,1.4,3.1,3.1V31c0,0.4,0,1.8,0,1.8L38.6,28l-2.6,3.8c0,0-10.7-10-10.7-10L13.6,33.4
				l-4.2-3.9l-3.2,3.3l0-27C6.3,4.4,7.4,3.4,8.6,3.4"/>
		</g>
	</g>
	<path class="st2" d="M0,10.8c4.1-1.6,8.2-3.3,11.7-6.4c0.4-0.5,1.4-0.6,2.3,0L16.1,6l0.1,0.1c2.4,2.6,4.8,4.6,7.4,6
		c0.2,0.1,0.5,0.1,0.8,0C31,8.2,36.1,4.4,38,0.6c0.1-0.1,0.2-0.2,0.2-0.2c0.6-0.5,2.1-0.5,3.5,0.3c5.1,3.1,9.9,6.4,16.5,8
		C58.9,8.9,59.3,9,60,8.9c0.2,0-0.6,0.5-1.8,0.4c-1.4-0.2-3.6-0.7-8.7-1.8c-0.4-0.1-5.7-1.5-7.9-2.6c-0.3-0.1-0.6-0.1-0.9,0.1
		c-3.9,2.8-8.1,5.2-11.2,8.1c-1.1,1.1,0.6,1.5,1.3,1.7l0,0c0.8,0.2,0.8,1.4-0.1,1.6c-1.8,0.4-3.9,0.6-6.4,0.5
		c-3.3-0.1-5.3,0.6-6.9,1.1c-0.1,0-0.3,0-0.5,0l-1-0.1c-0.9-0.1-1.1-1.3-0.3-1.6l2.4-1c0.4-0.2,0.6-0.7,0.4-1.2l-2.5-4.8
		C14.3,7.5,12.2,8,9.9,9C5.2,10.9,2.4,11.1,0,10.8L0,10.8z"/>
</g>
</svg>
