<svg id="图层_1" data-name="图层 1" xmlns="http://www.w3.org/2000/svg" viewBox="0 0 193.92 105.48"><defs><style>.cls-1{fill:#fff;}</style></defs><title>机库2</title><path class="cls-1" d="M63,18H11.52C5.23,18,0,18,0,25.33v6.16H63Zm67.84,0H182.5c6.3,0,11.42,0,11.42,7.33v6.16h-63Zm-100,16V92.82a16.83,16.83,0,0,0,16.74,16.75H58.24v13.87H64V119a3.6,3.6,0,0,1,3.57-3.63h56.7a3.61,3.61,0,0,1,3.62,3.57v4.54h5.76v-13.8h10.67a16.84,16.84,0,0,0,16.75-16.75V34ZM80.21,52.29H89.6V67.22h12.91V52.29h9.28V91.44h-9.28V75.33H89.6V91.44H80.21Z" transform="translate(0 -18)"/></svg>