<svg id="图层_1" data-name="图层 1" xmlns="http://www.w3.org/2000/svg" viewBox="0 0 193.92 125.44"><defs><style>.cls-1{fill:#fff;}</style></defs><title>机库</title><path class="cls-1" d="M63,0H11.52C5.23,0,0,6,0,13.33V33.49H63Zm67.84,0H182.5c6.3,0,11.42,6,11.42,13.33V33.49h-63Zm-100,36V94.82a16.84,16.84,0,0,0,16.74,16.75H58.24v13.87H64V121a3.61,3.61,0,0,1,3.57-3.63h56.7a3.6,3.6,0,0,1,3.62,3.57v4.54h5.76V111.68h10.67a16.85,16.85,0,0,0,16.75-16.75V36ZM80.21,54.29H89.6V69.22h12.91V54.29h9.28V93.44h-9.28V77.33H89.6V93.44H80.21Z" transform="translate(0)"/></svg>