<svg id="图层_1" preserveAspectRatio="none" data-name="图层 1" xmlns="http://www.w3.org/2000/svg" xmlns:xlink="http://www.w3.org/1999/xlink" viewBox="0 0 1080.35 757.44"><defs><style>.cls-1,.cls-6{opacity:0.8;}.cls-2{fill:#07152f;}.cls-3{opacity:0.5;}.cls-4{fill:#154e7e;}.cls-5{fill:#08477c;}.cls-6{fill:none;stroke-miterlimit:10;stroke-width:2px;isolation:isolate;stroke:url(#未命名的渐变_4);}.cls-7{fill:#0bdfff;}.cls-8{fill:url(#未命名的渐变_5);}.cls-9{fill:#31adf3;}</style><linearGradient id="未命名的渐变_4" x1="-0.02" y1="6.47" x2="1076.85" y2="6.47" gradientTransform="matrix(1, 0, 0, -1, 0.02, 757.09)" gradientUnits="userSpaceOnUse"><stop offset="0" stop-color="#31adf3" stop-opacity="0"/><stop offset="0.5" stop-color="#31adf3"/><stop offset="1" stop-color="#31adf3" stop-opacity="0"/></linearGradient><linearGradient id="未命名的渐变_5" x1="3.71" y1="293.33" x2="1080.57" y2="293.33" gradientTransform="translate(-0.21 -415.51) scale(1 1.42)" xlink:href="#未命名的渐变_4"/></defs><title>下</title><g class="cls-1"><polygon class="cls-2" points="1076.9 748.34 1067.69 757.43 546.12 757.42 537.86 746.97 529 757.42 9.08 757.43 0.04 748.38 0.04 0.08 1076.9 0.08 1076.9 748.34"/><g class="cls-3"><polygon class="cls-4" points="1076.9 748.34 1067.69 757.43 546.12 757.42 537.86 746.97 529 757.42 9.08 757.43 0.04 748.38 0.04 0.08 1076.9 0.08 1076.9 748.34"/></g></g><g class="cls-1"><path class="cls-5" d="M1076.22,37.91v746.7l-8.68,8.65-519.76.06-8.44-10.68-.76-1-.79.94-9,10.71-519-.06-8.44-8.58V37.91H1076.22m1-1H.35V785.06l9,9.2,519.88.06,9.29-11.06,8.75,11.06,520.65-.06,9.27-9.24V36.91Z" transform="translate(0.02 -36.91)"/></g><polyline class="cls-6" points="1076.87 756.38 546.94 756.44 538.2 745.38 528.91 756.44 0 756.38"/><polygon class="cls-7" points="538.17 750.9 532.88 757.44 543.52 757.44 538.17 750.9"/><g class="cls-1"><rect class="cls-8" x="3.49" y="0.02" width="1076.86" height="2"/></g><polygon class="cls-9" points="27.33 757.4 9.11 757.4 0.42 748.68 0.42 730.68 4.31 735.4 4.27 747.16 10.73 753.59 22.56 753.57 27.33 757.4"/><polygon class="cls-9" points="1050.33 757.4 1068.55 757.4 1077.23 748.68 1077.23 730.68 1073.35 735.4 1073.38 747.16 1066.93 753.59 1055.09 753.57 1050.33 757.4"/></svg>