<svg id="图层_1" data-name="图层 1" xmlns="http://www.w3.org/2000/svg" viewBox="0 0 19.98 17.49"><defs><style>.cls-1{fill:#fff;}</style></defs><title>向左缩进</title><path class="cls-1" d="M15.67,8.87h3.07a1.25,1.25,0,0,1,0,2.5H15.35L16,12A1.25,1.25,0,1,1,14.45,14a1.19,1.19,0,0,1-.19-.2l-2.65-2.63a1.24,1.24,0,0,1,0-1.76l2.65-2.64A1.25,1.25,0,1,1,16,8.51h0ZM1.25,1.37H18.74a1.25,1.25,0,0,1,0,2.5H1.25a1.25,1.25,0,0,1,0-2.5Zm0,7.5h7.5a1.25,1.25,0,0,1,0,2.5H1.25a1.25,1.25,0,0,1,0-2.5Zm0,7.49H18.74a1.25,1.25,0,0,1,0,2.5H1.25a1.25,1.25,0,0,1,0-2.5Z" transform="translate(0 -1.37)"/></svg>