<svg id="图层_1" data-name="图层 1" xmlns="http://www.w3.org/2000/svg" viewBox="0 0 16.35 19.86"><defs><style>.cls-1{fill:#fff;}</style></defs><title>位置</title><path class="cls-1" d="M5.92,1.18a8,8,0,0,1,8.21.07,8.52,8.52,0,0,1,4,7.32,12.39,12.39,0,0,1-3.72,7.91,22.07,22.07,0,0,1-3.93,3.29,1.26,1.26,0,0,1-.47.17,1,1,0,0,1-.46-.14,21.78,21.78,0,0,1-5.65-5.31A10.76,10.76,0,0,1,1.8,8.42V8.33A8.37,8.37,0,0,1,5.92,1.18ZM11,6a2.72,2.72,0,0,0-3,.6,2.89,2.89,0,0,0-.61,3.09A2.79,2.79,0,0,0,10,11.4a2.72,2.72,0,0,0,2-.81A2.87,2.87,0,0,0,11,6Z" transform="translate(-1.8 -0.08)"/></svg>