<svg id="图层_1" data-name="图层 1" xmlns="http://www.w3.org/2000/svg" viewBox="0 0 16.95 16.69"><defs><style>.cls-1{fill:#fff;}</style></defs><title>admin</title><path class="cls-1" d="M8.43,10.16a5,5,0,1,1,5-5A5,5,0,0,1,8.43,10.16Zm0-8.86a3.82,3.82,0,1,0,3.82,3.82A3.83,3.83,0,0,0,8.43,1.3Z" transform="translate(0.04 -0.09)"/><path class="cls-1" d="M.57,16.77H.46A.61.61,0,0,1,0,16.05,8.58,8.58,0,0,1,8.43,9L9,9a.61.61,0,1,1-.07,1.21H8.43a7.37,7.37,0,0,0-7.27,6.07A.61.61,0,0,1,.57,16.77Z" transform="translate(0.04 -0.09)"/><path class="cls-1" d="M16.3,16.78a.62.62,0,0,1-.6-.5,7.34,7.34,0,0,0-2.78-4.56.62.62,0,0,1-.11-.85.6.6,0,0,1,.85-.11,8.58,8.58,0,0,1,3.24,5.3.61.61,0,0,1-.49.71Z" transform="translate(0.04 -0.09)"/></svg>