<svg id="图层_1" data-name="图层 1" xmlns="http://www.w3.org/2000/svg" viewBox="0 0 29.93 24.23"><defs><style>.cls-1{fill:#fff;}</style></defs><title>退出登陆</title><path class="cls-1" d="M17.09,19.16H8.34c-.45,0-.7-.19-.77-.51V10.91a.68.68,0,0,1,.77-.76h8.81v-7a.59.59,0,0,1,.38-.63.6.6,0,0,1,.77.19l.38.38L23.5,7.93c2.09,2,4.12,4.13,6.22,6.16a.66.66,0,0,1,0,1c-3,3-5.9,5.9-8.89,8.82-.82.82-1.71,1.65-2.53,2.54a.69.69,0,0,1-.77.19.65.65,0,0,1-.44-.7V19.16ZM11.76,2.54V5.08H5A2.36,2.36,0,0,0,2.63,7.49V21.76a2.42,2.42,0,0,0,1.84,2.35,1.85,1.85,0,0,0,.57.06H11.7v2.54h-7A4.92,4.92,0,0,1,.09,22.78a5.11,5.11,0,0,1-.06-1V7.42A4.75,4.75,0,0,1,2.75,3.05a4.31,4.31,0,0,1,2-.51h7Z" transform="translate(-0.03 -2.48)"/></svg>