<svg id="图层_1" data-name="图层 1" xmlns="http://www.w3.org/2000/svg" viewBox="0 0 19.9 19.95"><defs><style>.cls-1{fill:#fff;}</style></defs><title>首页</title><path class="cls-1" d="M6.65,12.53h0l0,0,.17.1a7.08,7.08,0,0,0,3.13.76,7,7,0,0,0,3.34-.88h0a1,1,0,0,1,1.11,1.76l-.56-.87.56.87h0l0,0-.33.18a8.9,8.9,0,0,1-4.08,1,9.06,9.06,0,0,1-4.41-1.17l0,0h0l.56-.87-.56.87a1,1,0,0,1,1.11-1.75Z" transform="translate(-0.04 -0.03)"/><path class="cls-1" d="M9.65,2.23,2.3,8.51a.52.52,0,0,0-.18.4v8.48a.52.52,0,0,0,.52.52H17.35a.53.53,0,0,0,.52-.52h0V8.91a.51.51,0,0,0-.19-.4L10.33,2.23a.52.52,0,0,0-.68,0ZM1,6.93,8.31.65a2.62,2.62,0,0,1,3.37,0L19,6.93a2.61,2.61,0,0,1,.91,2v8.48A2.59,2.59,0,0,1,17.35,20H2.64A2.59,2.59,0,0,1,0,17.39V8.91A2.61,2.61,0,0,1,1,6.93Z" transform="translate(-0.04 -0.03)"/></svg>