<svg id="图层_1" data-name="图层 1" xmlns="http://www.w3.org/2000/svg" viewBox="0 0 28.83 28.75"><defs><style>.cls-1{fill:#fff;}</style></defs><title>后台管理</title><path class="cls-1" d="M6.36,26.57H23.61a1.44,1.44,0,1,1,0,2.87H6.36a1.44,1.44,0,1,1,0-2.87ZM2,.69h26a1.44,1.44,0,0,1,1.44,1.43V22.33a1.21,1.21,0,0,1-.45,1,1.33,1.33,0,0,1-1,.46H2a1.22,1.22,0,0,1-1-.46,1.32,1.32,0,0,1-.45-1V2.12A1.43,1.43,0,0,1,2,.69ZM13,17.67v2.39h3.23V17.67l1-.76,2,1.95,2.3-2.29-2-2a4,4,0,0,0,.77-1h2.38V10.35H20.35l-.77-1,2-2-2.3-2.3-2,2-1-.76V3.88H13V6.27L12,7l-1.95-2-2.3,2.3,2,2-.77,1H6.56v3.24H8.94l.77,1-2,2,2.3,2.29L12,16.91A7.78,7.78,0,0,0,13,17.67Z" transform="translate(-0.53 -0.69)"/></svg>