<svg id="图层_1" data-name="图层 1" xmlns="http://www.w3.org/2000/svg" viewBox="0 0 16.9 13.44"><defs><style>.cls-1{fill:#3caee1;}</style></defs><title>风速</title><path class="cls-1" d="M.66,6.62H7.8A2.47,2.47,0,1,0,5.4,4.07v.08H6.6A1.19,1.19,0,0,1,7.82,3,1.21,1.21,0,0,1,9,4.23a1.19,1.19,0,0,1-1.2,1.14H.66A.63.63,0,0,0,0,6,.62.62,0,0,0,.66,6.62Zm13.1,3.7H.66a.63.63,0,0,0,0,1.25h13.1a1.24,1.24,0,1,1-1.2,1.28v0h-1.2a2.39,2.39,0,1,0,2.4-2.5ZM.66,9.1h13.1a3.08,3.08,0,1,0-3-3.18V6c0,.21,0,.42.05.63h1.25A1.73,1.73,0,0,1,12,6a1.8,1.8,0,1,1,3.59.11,1.77,1.77,0,0,1-1.64,1.72l-.08,0H.66a.62.62,0,1,0,0,1.23Z" transform="translate(-0.04 -1.67)"/></svg>