<svg id="图层_1" data-name="图层 1" xmlns="http://www.w3.org/2000/svg" viewBox="0 0 14.27 16.95"><defs><style>.cls-1{fill:#1f80e1;}</style></defs><title>风向</title><path class="cls-1" d="M2.69,7.93H3.82v.75H2.69Zm0-4.51H3.82v.75H2.69Z" transform="translate(-1.44 -0.04)"/><path class="cls-1" d="M2.57,17a.38.38,0,0,1-.38-.37V1.85a.38.38,0,0,1,.38-.38.37.37,0,0,1,.37.38V16.62a.37.37,0,0,1-.37.37Z" transform="translate(-1.44 -0.04)"/><path class="cls-1" d="M13.8,4.27,3.7,3.05v6L13.8,7.84a2,2,0,0,0,1.92-1.79A2,2,0,0,0,13.8,4.27Z" transform="translate(-1.44 -0.04)"/><path class="cls-1" d="M6.31,8.74l2.25-.27V3.64L6.31,3.36Zm4.51-.54,2.25-.28V4.18l-2.25-.27Z" transform="translate(-1.44 -0.04)"/><path class="cls-1" d="M2.57,0A1.13,1.13,0,1,0,3.7,1.17,1.14,1.14,0,0,0,2.57,0Z" transform="translate(-1.44 -0.04)"/><path class="cls-1" d="M2.19,1.17a.38.38,0,1,0,0-.75.38.38,0,0,0,0,.75Z" transform="translate(-1.44 -0.04)"/></svg>