<svg id="图层_1" data-name="图层 1" xmlns="http://www.w3.org/2000/svg" viewBox="0 0 16.88 16.89"><defs><style>.cls-1{fill:#96d935;}</style></defs><title>降雨量</title><path class="cls-1" d="M14.77,12.07H12.4v-1.6h2.37V8.05H12.4V6.45h2.37V4H12.4V2.37h2.37V.83h1.56V15a2.4,2.4,0,0,1,.59.6l-1.15,1a5.79,5.79,0,0,0-.71-.69,2.3,2.3,0,0,0-1.29-.64c-.22,0-.36.09-.71.51a2.22,2.22,0,0,1-3.84,0c-.35-.41-.44-.5-.71-.5s-.35.08-.71.5a2.27,2.27,0,0,1-1.94,1.15A2.2,2.2,0,0,1,4,15.81c-.36-.41-.45-.5-.67-.5a1.79,1.79,0,0,0-1.07.36A1.77,1.77,0,0,0,1.8,16l-.07.14-.52.5L0,15.63c.17-.18.35-.42.53-.6a3.92,3.92,0,0,1,.71-.64,3.44,3.44,0,0,1,2-.68,2.23,2.23,0,0,1,1.91,1.1c.36.4.49.5.71.5s.36-.09.71-.5a2.23,2.23,0,0,1,1.92-1.1,2.25,2.25,0,0,1,1.92,1.1c.35.4.49.5.71.5s.36-.09.72-.5a2.23,2.23,0,0,1,1.92-1.1,5,5,0,0,1,1,.19V12.07Zm-9.41-.81A4,4,0,0,1,1.44,7.19C1.44,4.44,5.1,0,5.36,0s4,4.43,4,7.17a4,4,0,0,1-4,4.07" transform="translate(-0.04 -0.02)"/></svg>