<svg id="图层_1" data-name="图层 1" xmlns="http://www.w3.org/2000/svg" viewBox="0 0 14.11 16.93"><defs><style>.cls-1{fill:#30c26a;}</style></defs><title>空气温度</title><path class="cls-1" d="M9.05,9.58V2.88a2.82,2.82,0,0,0-5.64,0v6.7A4.07,4.07,0,0,0,2,12.76a4.23,4.23,0,0,0,8.46,0A4.29,4.29,0,0,0,9.05,9.58Zm-2.82,6a2.83,2.83,0,0,1-1.7-5.08.62.62,0,0,0,.29-.56V2.88a1.41,1.41,0,1,1,2.82,0V9.94a.64.64,0,0,0,.28.56,2.82,2.82,0,0,1-1.69,5.08Z" transform="translate(-2 -0.06)"/><path class="cls-1" d="M6.79,10.92V5.35a.55.55,0,0,0-.56-.56.56.56,0,0,0-.57.56v5.57a1.9,1.9,0,0,0-1.41,1.84,2,2,0,0,0,2,2,1.94,1.94,0,0,0,.56-3.81ZM6.23,13.6a.85.85,0,0,1-.85-.84.91.91,0,0,1,.85-.85.91.91,0,0,1,.84.85A.85.85,0,0,1,6.23,13.6ZM15.4,1.75H11.17a.67.67,0,0,0-.71.71.66.66,0,0,0,.71.7H15.4a.66.66,0,0,0,.7-.7A.67.67,0,0,0,15.4,1.75ZM14,4.58H11.17a.66.66,0,0,0-.71.7.67.67,0,0,0,.71.71H14a.67.67,0,0,0,.7-.71A.66.66,0,0,0,14,4.58ZM12.58,7.4H11.17a.66.66,0,0,0-.71.7.67.67,0,0,0,.71.71h1.41a.66.66,0,0,0,.7-.71A.66.66,0,0,0,12.58,7.4Z" transform="translate(-2 -0.06)"/></svg>