<svg id="图层_1" data-name="图层 1" xmlns="http://www.w3.org/2000/svg" viewBox="0 0 15.73 16.94"><defs><style>.cls-1{fill:#e7bd30;}</style></defs><title>空气湿度</title><path class="cls-1" d="M.51,10.45Q.51,4.66,6.19.15a.62.62,0,0,1,.75,0q5.67,4.52,5.67,10.3v.4a5.93,5.93,0,0,1-1.77,4.32A5.82,5.82,0,0,1,6.56,17a5.82,5.82,0,0,1-4.28-1.79A5.93,5.93,0,0,1,.51,10.85s0-.06,0-.08S.51,10.56.51,10.45ZM11.28,11.7a7,7,0,0,1-5-.31,6.09,6.09,0,0,0-4.51-.11,5.24,5.24,0,0,0,1.38,2.93,4.53,4.53,0,0,0,6.81,0A5.25,5.25,0,0,0,11.28,11.7Zm.12-1.29q0-5-4.84-9C3.47,4,1.86,6.85,1.73,10a7.05,7.05,0,0,1,5.1.27,6.06,6.06,0,0,0,4.57.1Zm0-6.76A4.33,4.33,0,0,1,13.46.14a.6.6,0,0,1,.72,0,4.33,4.33,0,0,1,2.06,3.51,2.33,2.33,0,0,1-.71,1.71,2.41,2.41,0,0,1-3.42,0A2.33,2.33,0,0,1,11.4,3.65Zm1.21,0A1.14,1.14,0,0,0,13,4.5a1.14,1.14,0,0,0,.85.36A1.21,1.21,0,0,0,15,3.65a3,3,0,0,0-1.21-2.26A3,3,0,0,0,12.61,3.65Z" transform="translate(-0.51 -0.02)"/></svg>