<svg id="图层_1" data-name="图层 1" xmlns="http://www.w3.org/2000/svg" viewBox="0 0 16.89 15.49"><defs><style>.cls-1{fill:#eb6931;}</style></defs><title>大气压</title><path class="cls-1" d="M8.59,13.13a.72.72,0,0,0,.74-.74V3A.75.75,0,0,0,7.84,3v9.33a.75.75,0,0,0,.75.85Zm5.09.22a2.81,2.81,0,0,0,2.75-2.76.74.74,0,1,0-1.48,0,1.17,1.17,0,0,1-2.33,0V1.47a.73.73,0,0,0-.75-.75c-.42,0-.95.32-.95.75v9.22a2.79,2.79,0,0,0,2.76,2.66Zm-10.08,0a2.73,2.73,0,0,0,2.76-2.66V1.47A.73.73,0,0,0,5.62.72a.75.75,0,0,0-.85.75v9.12a1.17,1.17,0,0,1-2.34,0,.72.72,0,0,0-.74-.74.82.82,0,0,0-.85.74A2.68,2.68,0,0,0,3.6,13.35Zm12.73,1.37H.84a.75.75,0,0,0,0,1.49H16.22a.73.73,0,0,0,.75-.74.61.61,0,0,0-.64-.75Z" transform="translate(-0.1 -0.72)"/></svg>